<svg xmlns="http://www.w3.org/2000/svg" viewBox="0 0 880 430" width="100%" height="430">
  <defs>
    <filter id="projShadow" x="-5%" y="-5%" width="110%" height="115%">
      <feDropShadow dx="0" dy="10" stdDeviation="14" flood-color="#000000" flood-opacity="0.18" />
    </filter>
    <clipPath id="projClip">
      <rect x="0" y="0" width="880" height="430" rx="24" />
    </clipPath>
  </defs>

  <style>
    .card-title {
      font-family: -apple-system, BlinkMacSystemFont, 'Montserrat', 'Segoe UI', Roboto, sans-serif;
      font-size: 26px;
      font-weight: 900;
      letter-spacing: 1px;
      text-transform: uppercase;
      fill: #FF7704;
    }
    .proj-title {
      font-family: -apple-system, BlinkMacSystemFont, 'Segoe UI', Roboto, sans-serif;
      font-size: 15px;
      font-weight: 800;
      fill: #0F172A;
    }
    .proj-tags {
      font-family: -apple-system, BlinkMacSystemFont, 'Segoe UI', Roboto, sans-serif;
      font-size: 11.5px;
      font-weight: 700;
      letter-spacing: 0.5px;
      fill: #1489CA;
    }
    .proj-desc {
      font-family: -apple-system, BlinkMacSystemFont, 'Segoe UI', Roboto, Helvetica, Arial, sans-serif;
      font-size: 13px;
      font-weight: 400;
      line-height: 1.45;
      fill: #475569;
    }
    .quote-text {
      font-family: -apple-system, BlinkMacSystemFont, 'Segoe UI', Roboto, Helvetica, Arial, sans-serif;
      font-size: 14.5px;
      font-weight: 600;
      fill: #FFFFFF;
    }
  </style>

  <g clip-path="url(#projClip)">
    <rect x="0" y="0" width="880" height="430" rx="24" fill="#FFFFFF" filter="url(#projShadow)" />

    <!-- Card Header -->
    <g transform="translate(45, 34)">
      <g transform="translate(0, 3)" stroke="#FF7704" stroke-width="2.8" fill="none" stroke-linecap="round" stroke-linejoin="round">
        <path d="M4.5 16.5c-1.5 1.26-2 5-2 5s3.74-.5 5-2c.71-.84.7-2.13-.09-2.91a2.18 2.18 0 0 0-2.91-.09z"/>
        <path d="M12 15l-3-3a22 22 0 0 1 2-3.95A12.88 12.88 0 0 1 22 2c0 2.72-.78 7.5-6 11a22.35 22.35 0 0 1-4 2z"/>
      </g>
      <text x="44" y="24" class="card-title">FEATURED ENGINEERING SHOWCASE</text>
    </g>

    <!-- Project 1 -->
    <g transform="translate(45, 95)">
      <text x="0" y="16" class="proj-title">🚀 Portfolio &amp; ENVI AI Command Center</text>
      <text x="0" y="33" class="proj-tags">NEXT.JS 16 • FASTAPI • LANGGRAPH • CHROMADB</text>
      <text x="0" y="52" class="proj-desc">5-tier zero-downtime LLM failover, 768-dim vector RAG memory,</text>
      <text x="0" y="69" class="proj-desc">and Cloudinary edge asset compression (f_auto, q_auto).</text>
    </g>

    <!-- Project 2 -->
    <g transform="translate(470, 95)">
      <text x="0" y="16" class="proj-title">🔐 Custom OAuth2 Identity Provider (IdP)</text>
      <text x="0" y="33" class="proj-tags">COLDBOX • JWT / JWE • RSA-256 ROTATION • MSSQL</text>
      <text x="0" y="52" class="proj-desc">RFC 6749 compliant PKCE auth server with automated PEM key</text>
      <text x="0" y="69" class="proj-desc">rotation, eliminating recurring commercial identity SaaS costs.</text>
    </g>

    <!-- Project 3 -->
    <g transform="translate(45, 230)">
      <text x="0" y="16" class="proj-title">⚡ Agentic SSH Terminal Orchestrator</text>
      <text x="0" y="33" class="proj-tags">NODE.JS • EXPRESS • XTERM.JS • LOCAL OLLAMA</text>
      <text x="0" y="52" class="proj-desc">Sub-10ms bi-directional WebSocket ANSI streaming bridge routing</text>
      <text x="0" y="69" class="proj-desc">autonomous CLI agent workflows with persistent Tmux sessions.</text>
    </g>

    <!-- Project 4 -->
    <g transform="translate(470, 230)">
      <text x="0" y="16" class="proj-title">📊 Schema-Driven Dynamic Dashboard</text>
      <text x="0" y="33" class="proj-tags">REACT • PLOTLY.JS • RECHARTS • MONGODB ATLAS</text>
      <text x="0" y="52" class="proj-desc">Low-code data analytics engine dynamically transforming raw JSON</text>
      <text x="0" y="69" class="proj-desc">and Mongo schemas into multi-axis charts with zero frontend rebuilds.</text>
    </g>

    <!-- Bottom Callout Bar in Onyx -->
    <g transform="translate(0, 370)">
      <rect x="0" y="0" width="880" height="60" fill="#070A12" />
      <text x="50%" y="36" text-anchor="middle" class="quote-text">Engineered for fault-tolerance, sub-second latency, and measurable impact.</text>
    </g>
  </g>
</svg>
